<svg width="2917" height="683" viewBox="0 0 2917 683" fill="none" xmlns="http://www.w3.org/2000/svg">
<path d="M455.067 7.33356C419.467 13.7336 382.4 35.8669 354.533 67.4669C332.133 92.6669 311.6 129.867 295.333 174.667C287.867 194.934 277.067 220 275.6 220C275.467 220 275.333 211.734 275.333 201.6C275.2 181.334 273.467 172.267 266.4 157.334C255.867 135.067 208.4 99.3336 186.933 97.6002C182.267 97.2002 177.867 97.7336 174 99.2002L168.133 101.467L173.333 109.467C180.933 121.334 184.133 131.734 184.933 148C186.4 177.2 178.4 198.934 141.867 265.6C96.6667 348.134 83.6 382.934 78.6667 434.4C75.0667 470.4 84.4 509.6 104.533 543.067C119.2 567.6 135.067 586 147.2 592.534L151.867 594.934L169.6 585.067L187.333 575.334L187.733 488.934L188 402.667H211.333H234.667L234.933 477.2C235.2 518.267 235.733 552.267 236.267 552.8C236.8 553.334 253.2 546.4 272.667 537.334L308 520.934L308.133 425.2C308.267 372.4 308.4 328.534 308.533 327.6C308.667 326.4 314.267 326 332 326H355.333L355.733 374.667C356 401.467 356.533 440.8 357.067 462.267L358 501.067L395.067 480.267L432.267 459.334L431.467 432C431.067 416.934 430.267 371.467 429.867 330.934L429.067 257.334H452.4H475.6L476.4 275.6C476.933 285.734 477.733 323.334 478.133 359.067C478.667 394.8 479.467 424.4 480.133 424.667C481.467 425.6 511.067 403.467 519.333 395.2C530.8 384 539.733 363.467 544.667 336.667C546.4 327.867 546.533 323.467 545.333 313.334C541.333 277.467 532.667 253.2 503.733 195.867C479.333 147.734 471.067 123.734 469.733 96.6669C468.933 79.8669 470.667 66.4002 475.333 52.9336C479.733 40.1336 485.733 30.8002 497.733 18.0002C503.333 11.8669 508 6.53356 508 6.13356C508 4.6669 464.667 5.60023 455.067 7.33356Z" fill="white"/>
<path d="M567.6 365.867C471.333 474.933 329.6 561.333 184 599.467C171.2 602.8 159.867 605.733 158.8 606.133C155.067 607.333 192.133 633.733 213.333 645.067C271.2 675.867 334.933 685.733 396.667 673.2C439.067 664.667 484 642.267 516.933 613.467C581.333 556.933 610.933 468 593.867 382C591.6 370.8 585.733 350.667 584.133 349.067C583.733 348.533 576.133 356.133 567.6 365.867Z" fill="white"/>
<path d="M1042.8 191.439V242.832H812.23V323.394H1001.13V371.546H812.23V491H750.651V191.439H1042.8ZM1154.95 159.955V212.737H1085.03V159.955H1154.95ZM1089.66 260.889H1149.85V491H1089.66V260.889ZM1209.85 260.889H1270.04V491H1209.85V260.889ZM1358.47 310.43C1341.19 310.43 1326.22 313.825 1313.56 320.616C1300.91 327.098 1290.72 335.123 1283 344.692C1275.29 354.261 1269.89 363.521 1266.8 372.472L1266.34 347.007C1266.64 343.303 1267.88 337.901 1270.04 330.802C1272.2 323.394 1275.44 315.523 1279.76 307.189C1284.08 298.546 1289.79 290.367 1296.89 282.65C1303.99 274.625 1312.64 268.143 1322.82 263.204C1333.01 258.265 1344.89 255.796 1358.47 255.796V310.43ZM1605.42 414.605H1663.76C1661.29 430.347 1654.65 444.391 1643.85 456.738C1633.36 469.085 1619 478.808 1600.79 485.907C1582.58 493.006 1560.36 496.556 1534.12 496.556C1504.8 496.556 1478.87 491.926 1456.34 482.666C1433.8 473.097 1416.21 459.362 1403.55 441.459C1390.9 423.556 1384.57 401.95 1384.57 376.639C1384.57 351.328 1390.74 329.722 1403.09 311.819C1415.44 293.608 1432.57 279.718 1454.48 270.149C1476.71 260.58 1502.64 255.796 1532.27 255.796C1562.52 255.796 1587.67 260.58 1607.74 270.149C1627.8 279.718 1642.62 294.225 1652.18 313.671C1662.06 332.808 1666.23 357.347 1664.69 387.288H1445.22C1446.77 399.017 1451.09 409.666 1458.19 419.235C1465.6 428.804 1475.47 436.366 1487.82 441.922C1500.47 447.478 1515.45 450.256 1532.73 450.256C1551.87 450.256 1567.76 447.015 1580.42 440.533C1593.38 433.742 1601.72 425.1 1605.42 414.605ZM1529.49 301.633C1507.27 301.633 1489.21 306.572 1475.32 316.449C1461.43 326.018 1452.48 337.901 1448.46 352.1H1604.96C1603.42 336.667 1596.01 324.474 1582.73 315.523C1569.77 306.263 1552.02 301.633 1529.49 301.633ZM1700.21 414.605H1755.77C1759.17 425.1 1766.11 433.742 1776.61 440.533C1787.41 447.015 1801.46 450.256 1818.74 450.256C1830.47 450.256 1839.58 449.176 1846.06 447.015C1852.54 444.854 1857.02 441.768 1859.49 437.755C1861.95 433.434 1863.19 428.649 1863.19 423.402C1863.19 416.92 1861.18 411.981 1857.17 408.586C1853.16 404.882 1846.98 401.95 1838.65 399.789C1830.32 397.628 1819.67 395.622 1806.7 393.77C1793.74 391.609 1781.24 388.986 1769.2 385.899C1757.16 382.812 1746.51 378.8 1737.25 373.861C1727.99 368.614 1720.59 362.132 1715.03 354.415C1709.78 346.39 1707.16 336.667 1707.16 325.246C1707.16 314.134 1709.78 304.257 1715.03 295.614C1720.59 286.971 1728.15 279.718 1737.72 273.853C1747.59 267.988 1759.01 263.513 1771.98 260.426C1785.25 257.339 1799.45 255.796 1814.57 255.796C1837.42 255.796 1856.4 259.191 1871.52 265.982C1886.65 272.464 1897.91 281.724 1905.32 293.762C1913.04 305.491 1916.9 319.073 1916.9 334.506H1863.65C1861.18 323.085 1856.24 314.906 1848.84 309.967C1841.43 304.72 1830.01 302.096 1814.57 302.096C1799.45 302.096 1788.03 304.411 1780.31 309.041C1772.6 313.671 1768.74 319.999 1768.74 328.024C1768.74 334.506 1771.05 339.599 1775.68 343.303C1780.62 346.698 1787.72 349.476 1796.98 351.637C1806.55 353.798 1818.43 356.113 1832.63 358.582C1844.67 361.051 1856.09 363.829 1866.89 366.916C1878.01 370.003 1887.88 374.015 1896.53 378.954C1905.17 383.584 1911.96 389.912 1916.9 397.937C1922.14 405.654 1924.77 415.531 1924.77 427.569C1924.77 442.385 1920.45 454.886 1911.8 465.072C1903.47 475.258 1891.43 483.129 1875.69 488.685C1859.95 493.932 1841.12 496.556 1819.2 496.556C1799.76 496.556 1782.94 494.55 1768.74 490.537C1754.85 486.216 1743.27 480.814 1734.01 474.332C1724.75 467.541 1717.5 460.442 1712.25 453.034C1707.31 445.317 1703.92 438.064 1702.07 431.273C1700.21 424.482 1699.6 418.926 1700.21 414.605ZM2243.99 400.252C2242.44 420.315 2235.96 437.601 2224.54 452.108C2213.43 466.615 2197.99 477.727 2178.24 485.444C2158.48 492.852 2135.03 496.556 2107.86 496.556C2079.47 496.556 2054 492.08 2031.47 483.129C2009.24 473.869 1991.65 460.442 1978.69 442.848C1966.03 424.945 1959.7 402.876 1959.7 376.639C1959.7 350.402 1966.03 328.333 1978.69 310.43C1991.65 292.527 2009.24 278.946 2031.47 269.686C2054 260.426 2079.47 255.796 2107.86 255.796C2135.03 255.796 2158.33 259.654 2177.78 267.371C2197.22 274.779 2212.5 285.582 2223.61 299.781C2235.03 313.98 2241.67 331.111 2243.52 351.174H2188.43C2183.18 335.741 2173.45 323.703 2159.26 315.06C2145.06 306.417 2127.93 302.096 2107.86 302.096C2091.81 302.096 2077.15 304.874 2063.88 310.43C2050.91 315.986 2040.42 324.32 2032.39 335.432C2024.68 346.235 2020.82 359.971 2020.82 376.639C2020.82 392.998 2024.68 406.734 2032.39 417.846C2040.11 428.649 2050.61 436.829 2063.88 442.385C2077.15 447.632 2091.81 450.256 2107.86 450.256C2129.47 450.256 2147.06 445.935 2160.65 437.292C2174.54 428.649 2183.95 416.303 2188.89 400.252H2243.99ZM2400.27 496.093C2377.43 496.093 2356.59 491.154 2337.76 481.277C2319.24 471.091 2304.43 457.047 2293.32 439.144C2282.51 420.933 2277.11 399.943 2277.11 376.176C2277.11 351.791 2282.67 330.648 2293.78 312.745C2304.89 294.842 2319.86 280.952 2338.69 271.075C2357.83 260.889 2379.43 255.796 2403.51 255.796C2430.06 255.796 2451.35 261.198 2467.4 272.001C2483.76 282.496 2495.65 296.849 2503.06 315.06C2510.46 333.271 2514.17 353.643 2514.17 376.176C2514.17 389.757 2512.01 403.647 2507.69 417.846C2503.36 431.736 2496.73 444.7 2487.78 456.738C2478.83 468.467 2467.1 478.036 2452.59 485.444C2438.08 492.543 2420.64 496.093 2400.27 496.093ZM2419.72 449.793C2437.93 449.793 2453.67 446.706 2466.94 440.533C2480.21 434.36 2490.4 425.717 2497.5 414.605C2504.6 403.493 2508.15 390.683 2508.15 376.176C2508.15 360.434 2504.44 347.161 2497.04 336.358C2489.94 325.246 2479.75 316.912 2466.48 311.356C2453.51 305.491 2437.93 302.559 2419.72 302.559C2394.1 302.559 2374.19 309.35 2359.99 322.931C2345.79 336.204 2338.69 353.952 2338.69 376.176C2338.69 390.992 2342.09 403.956 2348.88 415.068C2355.67 425.871 2365.08 434.36 2377.12 440.533C2389.47 446.706 2403.66 449.793 2419.72 449.793ZM2508.15 260.889H2568.34V491H2512.32C2512.32 491 2511.85 488.068 2510.93 482.203C2510.31 476.03 2509.69 468.313 2509.07 459.053C2508.46 449.793 2508.15 440.687 2508.15 431.736V260.889ZM2622.81 260.889H2683V491H2622.81V260.889ZM2789.96 255.796C2804.15 255.796 2817.27 257.648 2829.31 261.352C2841.35 265.056 2851.84 270.766 2860.8 278.483C2869.75 286.2 2876.69 296.077 2881.63 308.115C2886.57 319.844 2889.04 333.889 2889.04 350.248V491H2828.85V360.897C2828.85 341.451 2824.06 327.252 2814.5 318.301C2805.24 309.041 2789.96 304.411 2768.66 304.411C2752.61 304.411 2738.1 307.498 2725.14 313.671C2712.17 319.844 2701.68 327.715 2693.65 337.284C2685.63 346.544 2681 356.267 2679.76 366.453L2679.3 342.84C2680.84 332.037 2684.39 321.542 2689.95 311.356C2695.5 301.17 2702.91 291.91 2712.17 283.576C2721.74 274.933 2733.01 268.143 2745.97 263.204C2758.94 258.265 2773.6 255.796 2789.96 255.796Z" fill="white"/>
</svg>
