<svg width="418" height="549" viewBox="0 0 418 549" fill="none" xmlns="http://www.w3.org/2000/svg">
<path d="M302.479 1.57158C273.928 6.79172 244.201 24.8447 221.852 50.6191C203.887 71.1734 187.419 101.516 174.374 138.056C168.385 154.587 159.724 175.032 158.548 175.032C158.441 175.032 158.334 168.29 158.334 160.025C158.227 143.494 156.837 136.099 151.169 123.919C142.721 105.757 104.653 76.6111 87.437 75.1973C83.6944 74.871 80.1656 75.3061 77.0645 76.5023L72.3595 78.3511L76.5299 84.8763C82.6251 94.5553 85.1914 103.038 85.833 116.306C87.0093 140.123 80.5933 157.85 51.2937 212.226C15.0434 279.544 4.56395 307.929 0.607432 349.907C-2.27976 379.27 5.20555 411.244 21.3524 438.541C33.1151 458.551 45.8401 473.559 55.571 478.888L59.3137 480.846L73.5358 472.798L87.7578 464.859L88.0786 394.387L88.2925 324.024H107.006H125.719L125.933 384.817C126.147 418.313 126.575 446.045 127.002 446.48C127.43 446.915 140.583 441.26 156.195 433.864L184.532 420.488L184.639 342.403C184.746 299.337 184.853 263.557 184.96 262.796C185.067 261.817 189.558 261.491 203.78 261.491H222.493L222.814 301.186C223.028 323.045 223.456 355.127 223.884 372.637L224.632 404.284L254.359 387.318L284.194 370.244L283.552 347.95C283.231 335.661 282.59 298.576 282.269 265.515L281.627 205.483H300.341H318.947L319.589 220.382C320.016 228.648 320.658 259.316 320.979 288.462C321.406 317.608 322.048 341.751 322.583 341.968C323.652 342.729 347.391 324.677 354.021 317.934C363.217 308.799 370.382 292.051 374.338 270.191C375.728 263.014 375.835 259.425 374.873 251.16C371.665 221.905 364.714 202.112 341.51 155.348C321.941 116.088 315.311 96.5129 314.242 74.436C313.6 60.7332 314.991 49.7491 318.733 38.7651C322.262 28.3248 327.074 20.7121 336.698 10.2718C341.189 5.26918 344.932 0.919062 344.932 0.592803C344.932 -0.603479 310.179 0.157791 302.479 1.57158Z" fill="#FF4318"/>
<path d="M392.731 294.008C315.525 382.968 201.855 453.44 85.0845 484.543C74.8189 487.262 65.7296 489.655 64.8741 489.981C61.88 490.96 91.6074 512.493 108.61 521.737C155.019 546.859 206.133 554.906 255.643 544.684C289.647 537.723 325.684 519.453 352.096 495.962C403.745 449.851 427.484 377.313 413.797 307.167C411.979 298.032 407.274 281.61 405.99 280.305C405.67 279.87 399.574 286.069 392.731 294.008Z" fill="#FF4318"/>
</svg>
